<?xml version="1.0" encoding="UTF-8" standalone="no"?>
<!DOCTYPE svg PUBLIC "-//W3C//DTD SVG 1.1//EN" "http://www.w3.org/Graphics/SVG/1.1/DTD/svg11.dtd">
<svg width="100%" height="100%" viewBox="0 0 1084 457" version="1.1" xmlns="http://www.w3.org/2000/svg" xmlns:xlink="http://www.w3.org/1999/xlink" xml:space="preserve" xmlns:serif="http://www.serif.com/" style="fill-rule:evenodd;clip-rule:evenodd;stroke-linecap:square;stroke-miterlimit:1.41421;">
    <g transform="matrix(1.33333,0,0,1.33333,-52.9651,-50.9795)">
        <g id="banner" transform="matrix(1.24257,0,0,1.24257,346.176,-107.724)">
            <path d="M395.834,325.964L395.834,374.593L125.197,374.593L125.197,287.592L358.767,287.592L358.947,325.962L395.834,325.964Z" style="fill-rule:nonzero;"/>
            <g transform="matrix(1,0,0,1,78.883,-158.815)">
                <g transform="matrix(40,0,0,40,56.396,484.115)">
                    <path d="M0.663,-0.158L0.663,-0.051C0.591,-0.012 0.509,0.008 0.415,0.008C0.339,0.008 0.274,-0.007 0.221,-0.038C0.168,-0.069 0.126,-0.111 0.095,-0.165C0.064,-0.218 0.049,-0.276 0.049,-0.339C0.049,-0.438 0.084,-0.522 0.155,-0.589C0.226,-0.657 0.313,-0.691 0.417,-0.691C0.489,-0.691 0.568,-0.672 0.656,-0.635L0.656,-0.53C0.576,-0.575 0.498,-0.598 0.422,-0.598C0.344,-0.598 0.279,-0.573 0.227,-0.524C0.176,-0.475 0.15,-0.413 0.15,-0.339C0.15,-0.264 0.175,-0.202 0.226,-0.154C0.277,-0.106 0.342,-0.082 0.421,-0.082C0.504,-0.082 0.584,-0.107 0.663,-0.158Z" style="fill:white;fill-rule:nonzero;"/>
                </g>
                <g transform="matrix(40,0,0,40,84.7163,484.115)">
                    <path d="M0.41,-0.692C0.516,-0.692 0.603,-0.659 0.674,-0.592C0.744,-0.525 0.779,-0.441 0.779,-0.341C0.779,-0.24 0.743,-0.157 0.673,-0.091C0.602,-0.025 0.513,0.008 0.405,0.008C0.302,0.008 0.216,-0.025 0.148,-0.091C0.079,-0.157 0.045,-0.24 0.045,-0.339C0.045,-0.441 0.079,-0.525 0.148,-0.592C0.217,-0.659 0.305,-0.692 0.41,-0.692ZM0.414,-0.599C0.336,-0.599 0.272,-0.575 0.221,-0.526C0.171,-0.477 0.146,-0.415 0.146,-0.339C0.146,-0.265 0.171,-0.204 0.222,-0.155C0.272,-0.106 0.335,-0.082 0.411,-0.082C0.487,-0.082 0.551,-0.107 0.602,-0.157C0.653,-0.207 0.678,-0.269 0.678,-0.343C0.678,-0.415 0.653,-0.476 0.602,-0.525C0.551,-0.574 0.488,-0.599 0.414,-0.599Z" style="fill:white;fill-rule:nonzero;"/>
                </g>
                <g transform="matrix(40,0,0,40,117.646,484.115)">
                    <path d="M0.618,-0.682L0.709,-0.682L0.709,-0L0.611,-0L0.611,-0.531L0.401,-0.267L0.383,-0.267L0.171,-0.531L0.171,-0L0.073,-0L0.073,-0.682L0.165,-0.682L0.392,-0.402L0.618,-0.682Z" style="fill:white;fill-rule:nonzero;"/>
                </g>
                <g transform="matrix(40,0,0,40,148.876,484.115)">
                    <path d="M0.618,-0.682L0.709,-0.682L0.709,-0L0.611,-0L0.611,-0.531L0.401,-0.267L0.383,-0.267L0.171,-0.531L0.171,-0L0.073,-0L0.073,-0.682L0.165,-0.682L0.392,-0.402L0.618,-0.682Z" style="fill:white;fill-rule:nonzero;"/>
                </g>
                <g transform="matrix(40,0,0,40,180.107,484.115)">
                    <path d="M0.41,-0.692C0.516,-0.692 0.603,-0.659 0.674,-0.592C0.744,-0.525 0.779,-0.441 0.779,-0.341C0.779,-0.24 0.743,-0.157 0.673,-0.091C0.602,-0.025 0.513,0.008 0.405,0.008C0.302,0.008 0.216,-0.025 0.148,-0.091C0.079,-0.157 0.045,-0.24 0.045,-0.339C0.045,-0.441 0.079,-0.525 0.148,-0.592C0.217,-0.659 0.305,-0.692 0.41,-0.692ZM0.414,-0.599C0.336,-0.599 0.272,-0.575 0.221,-0.526C0.171,-0.477 0.146,-0.415 0.146,-0.339C0.146,-0.265 0.171,-0.204 0.222,-0.155C0.272,-0.106 0.335,-0.082 0.411,-0.082C0.487,-0.082 0.551,-0.107 0.602,-0.157C0.653,-0.207 0.678,-0.269 0.678,-0.343C0.678,-0.415 0.653,-0.476 0.602,-0.525C0.551,-0.574 0.488,-0.599 0.414,-0.599Z" style="fill:white;fill-rule:nonzero;"/>
                </g>
                <g transform="matrix(40,0,0,40,213.037,484.115)">
                    <path d="M0.617,-0.682L0.71,-0.682L0.71,-0L0.626,-0L0.17,-0.525L0.17,-0L0.078,-0L0.078,-0.682L0.157,-0.682L0.617,-0.153L0.617,-0.682Z" style="fill:white;fill-rule:nonzero;"/>
                </g>
                <g transform="matrix(40,0,0,40,244.267,484.115)">
                    <path d="M0.244,-0.286L0.17,-0.331C0.123,-0.359 0.09,-0.387 0.071,-0.415C0.051,-0.442 0.041,-0.474 0.041,-0.51C0.041,-0.563 0.06,-0.607 0.097,-0.641C0.134,-0.674 0.183,-0.691 0.242,-0.691C0.299,-0.691 0.351,-0.675 0.399,-0.643L0.399,-0.532C0.35,-0.579 0.297,-0.603 0.24,-0.603C0.208,-0.603 0.182,-0.596 0.162,-0.581C0.141,-0.566 0.131,-0.547 0.131,-0.524C0.131,-0.503 0.138,-0.484 0.153,-0.466C0.168,-0.448 0.193,-0.43 0.226,-0.41L0.301,-0.366C0.384,-0.317 0.426,-0.254 0.426,-0.177C0.426,-0.122 0.407,-0.078 0.371,-0.043C0.334,-0.009 0.287,0.008 0.228,0.008C0.161,0.008 0.099,-0.013 0.044,-0.054L0.044,-0.178C0.097,-0.111 0.158,-0.078 0.227,-0.078C0.258,-0.078 0.283,-0.087 0.303,-0.104C0.324,-0.121 0.334,-0.142 0.334,-0.168C0.334,-0.21 0.304,-0.249 0.244,-0.286Z" style="fill:white;fill-rule:nonzero;"/>
                </g>
                <g transform="matrix(40,0,0,40,56.396,524.115)">
                    <path d="M0.618,-0.682L0.709,-0.682L0.709,-0L0.611,-0L0.611,-0.531L0.401,-0.267L0.383,-0.267L0.171,-0.531L0.171,-0L0.073,-0L0.073,-0.682L0.165,-0.682L0.392,-0.402L0.618,-0.682Z" style="fill:white;fill-rule:nonzero;"/>
                </g>
                <g transform="matrix(40,0,0,40,87.6264,524.115)">
                    <path d="M0.41,-0.692C0.516,-0.692 0.603,-0.659 0.674,-0.592C0.744,-0.525 0.779,-0.441 0.779,-0.341C0.779,-0.24 0.743,-0.157 0.673,-0.091C0.602,-0.025 0.513,0.008 0.405,0.008C0.302,0.008 0.216,-0.025 0.148,-0.091C0.079,-0.157 0.045,-0.24 0.045,-0.339C0.045,-0.441 0.079,-0.525 0.148,-0.592C0.217,-0.659 0.305,-0.692 0.41,-0.692ZM0.414,-0.599C0.336,-0.599 0.272,-0.575 0.221,-0.526C0.171,-0.477 0.146,-0.415 0.146,-0.339C0.146,-0.265 0.171,-0.204 0.222,-0.155C0.272,-0.106 0.335,-0.082 0.411,-0.082C0.487,-0.082 0.551,-0.107 0.602,-0.157C0.653,-0.207 0.678,-0.269 0.678,-0.343C0.678,-0.415 0.653,-0.476 0.602,-0.525C0.551,-0.574 0.488,-0.599 0.414,-0.599Z" style="fill:white;fill-rule:nonzero;"/>
                </g>
                <g transform="matrix(40,0,0,40,120.556,524.115)">
                    <path d="M0.617,-0.682L0.71,-0.682L0.71,-0L0.626,-0L0.17,-0.525L0.17,-0L0.078,-0L0.078,-0.682L0.157,-0.682L0.617,-0.153L0.617,-0.682Z" style="fill:white;fill-rule:nonzero;"/>
                </g>
                <g transform="matrix(40,0,0,40,151.787,524.115)">
                    <path d="M0.41,-0.692C0.516,-0.692 0.603,-0.659 0.674,-0.592C0.744,-0.525 0.779,-0.441 0.779,-0.341C0.779,-0.24 0.743,-0.157 0.673,-0.091C0.602,-0.025 0.513,0.008 0.405,0.008C0.302,0.008 0.216,-0.025 0.148,-0.091C0.079,-0.157 0.045,-0.24 0.045,-0.339C0.045,-0.441 0.079,-0.525 0.148,-0.592C0.217,-0.659 0.305,-0.692 0.41,-0.692ZM0.414,-0.599C0.336,-0.599 0.272,-0.575 0.221,-0.526C0.171,-0.477 0.146,-0.415 0.146,-0.339C0.146,-0.265 0.171,-0.204 0.222,-0.155C0.272,-0.106 0.335,-0.082 0.411,-0.082C0.487,-0.082 0.551,-0.107 0.602,-0.157C0.653,-0.207 0.678,-0.269 0.678,-0.343C0.678,-0.415 0.653,-0.476 0.602,-0.525C0.551,-0.574 0.488,-0.599 0.414,-0.599Z" style="fill:white;fill-rule:nonzero;"/>
                </g>
                <g transform="matrix(40,0,0,40,184.716,524.115)">
                    <path d="M0.078,-0L0.078,-0.682L0.249,-0.682C0.318,-0.682 0.373,-0.665 0.413,-0.631C0.454,-0.597 0.474,-0.55 0.474,-0.492C0.474,-0.452 0.464,-0.418 0.444,-0.389C0.424,-0.36 0.396,-0.339 0.359,-0.324C0.381,-0.31 0.402,-0.29 0.423,-0.266C0.444,-0.241 0.473,-0.198 0.511,-0.136C0.535,-0.097 0.554,-0.068 0.568,-0.049L0.604,-0L0.488,-0L0.458,-0.045L0.433,-0.08L0.403,-0.13L0.37,-0.183C0.35,-0.211 0.331,-0.233 0.315,-0.25C0.298,-0.267 0.283,-0.279 0.269,-0.286C0.256,-0.293 0.233,-0.297 0.201,-0.297L0.176,-0.297L0.176,-0L0.078,-0ZM0.205,-0.599L0.176,-0.599L0.176,-0.384L0.213,-0.384C0.262,-0.384 0.296,-0.388 0.315,-0.396C0.333,-0.405 0.347,-0.418 0.358,-0.435C0.368,-0.452 0.373,-0.471 0.373,-0.493C0.373,-0.515 0.367,-0.534 0.356,-0.552C0.345,-0.569 0.329,-0.581 0.308,-0.588C0.287,-0.596 0.253,-0.599 0.205,-0.599Z" style="fill:white;fill-rule:nonzero;"/>
                </g>
                <g transform="matrix(40,0,0,40,208.876,524.115)">
                    <path d="M0.075,-0.682L0.462,-0.682L0.462,-0.595L0.173,-0.595L0.173,-0.387L0.452,-0.387L0.452,-0.3L0.173,-0.3L0.173,-0.088L0.471,-0.088L0.471,-0.001L0.075,-0.001L0.075,-0.682Z" style="fill:white;fill-rule:nonzero;"/>
                </g>
                <g transform="matrix(40,0,0,40,228.876,524.115)">
                    <path d="M0.07,-0L0.07,-0.683L0.286,-0.683C0.351,-0.683 0.403,-0.666 0.442,-0.63C0.481,-0.595 0.5,-0.548 0.5,-0.489C0.5,-0.449 0.49,-0.414 0.47,-0.383C0.45,-0.353 0.423,-0.33 0.389,-0.317C0.354,-0.303 0.305,-0.296 0.24,-0.296L0.168,-0.296L0.168,-0L0.07,-0ZM0.269,-0.596L0.168,-0.596L0.168,-0.383L0.275,-0.383C0.315,-0.383 0.345,-0.392 0.367,-0.411C0.388,-0.43 0.399,-0.456 0.399,-0.491C0.399,-0.561 0.356,-0.596 0.269,-0.596Z" style="fill:white;fill-rule:nonzero;"/>
                </g>
                <g transform="matrix(40,0,0,40,249.267,524.115)">
                    <path d="M0.078,-0L0.078,-0.682L0.249,-0.682C0.318,-0.682 0.373,-0.665 0.413,-0.631C0.454,-0.597 0.474,-0.55 0.474,-0.492C0.474,-0.452 0.464,-0.418 0.444,-0.389C0.424,-0.36 0.396,-0.339 0.359,-0.324C0.381,-0.31 0.402,-0.29 0.423,-0.266C0.444,-0.241 0.473,-0.198 0.511,-0.136C0.535,-0.097 0.554,-0.068 0.568,-0.049L0.604,-0L0.488,-0L0.458,-0.045L0.433,-0.08L0.403,-0.13L0.37,-0.183C0.35,-0.211 0.331,-0.233 0.315,-0.25C0.298,-0.267 0.283,-0.279 0.269,-0.286C0.256,-0.293 0.233,-0.297 0.201,-0.297L0.176,-0.297L0.176,-0L0.078,-0ZM0.205,-0.599L0.176,-0.599L0.176,-0.384L0.213,-0.384C0.262,-0.384 0.296,-0.388 0.315,-0.396C0.333,-0.405 0.347,-0.418 0.358,-0.435C0.368,-0.452 0.373,-0.471 0.373,-0.493C0.373,-0.515 0.367,-0.534 0.356,-0.552C0.345,-0.569 0.329,-0.581 0.308,-0.588C0.287,-0.596 0.253,-0.599 0.205,-0.599Z" style="fill:white;fill-rule:nonzero;"/>
                </g>
                <g transform="matrix(40,0,0,40,271.025,524.115)">
                    <path d="M0.41,-0.692C0.516,-0.692 0.603,-0.659 0.674,-0.592C0.744,-0.525 0.779,-0.441 0.779,-0.341C0.779,-0.24 0.743,-0.157 0.673,-0.091C0.602,-0.025 0.513,0.008 0.405,0.008C0.302,0.008 0.216,-0.025 0.148,-0.091C0.079,-0.157 0.045,-0.24 0.045,-0.339C0.045,-0.441 0.079,-0.525 0.148,-0.592C0.217,-0.659 0.305,-0.692 0.41,-0.692ZM0.414,-0.599C0.336,-0.599 0.272,-0.575 0.221,-0.526C0.171,-0.477 0.146,-0.415 0.146,-0.339C0.146,-0.265 0.171,-0.204 0.222,-0.155C0.272,-0.106 0.335,-0.082 0.411,-0.082C0.487,-0.082 0.551,-0.107 0.602,-0.157C0.653,-0.207 0.678,-0.269 0.678,-0.343C0.678,-0.415 0.653,-0.476 0.602,-0.525C0.551,-0.574 0.488,-0.599 0.414,-0.599Z" style="fill:white;fill-rule:nonzero;"/>
                </g>
            </g>
        </g>
        <g transform="matrix(0.558714,0,0,0.558714,615.092,25.8214)">
            <g transform="matrix(6.94156,2.28889,-2.28889,6.94156,205.092,40.2733)">
                <path d="M16,17.116C14.038,18.259 9.332,21.391 7.553,26.015C7.497,26.161 7.52,26.327 7.612,26.453C7.667,26.526 7.742,26.58 7.824,26.61C7.884,26.632 7.95,26.64 8.016,26.636L13.774,26.19C13.779,26.171 13.778,26.151 13.784,26.133L16,17.116Z" style="fill:rgb(31,31,31);fill-rule:nonzero;"/>
            </g>
            <g transform="matrix(6.94156,2.28889,-2.28889,6.94156,205.092,40.2733)">
                <path d="M30.852,34.356C32.403,29.655 30.79,24.25 30.036,22.173L25.918,30.551C25.913,30.565 25.906,30.572 25.899,30.586L30.053,34.656C30.1,34.703 30.158,34.738 30.217,34.76C30.225,34.766 30.231,34.768 30.233,34.768C30.471,34.854 30.735,34.731 30.821,34.495C30.841,34.448 30.848,34.401 30.852,34.356Z" style="fill:rgb(31,31,31);fill-rule:nonzero;"/>
            </g>
            <g transform="matrix(6.94156,2.28889,-2.28889,6.94156,205.092,40.2733)">
                <path d="M33.307,10.727C33.828,7.949 33.536,3.93 31.924,1.682C31.885,1.63 31.854,1.571 31.817,1.521C31.719,1.396 31.612,1.291 31.506,1.18C31.442,1.112 31.381,1.031 31.315,0.967C31.239,0.898 31.155,0.847 31.077,0.783C30.968,0.695 30.86,0.599 30.743,0.524C30.688,0.49 30.624,0.47 30.569,0.44C30.415,0.354 30.26,0.268 30.092,0.207C29.971,0.163 29.846,0.144 29.719,0.114C29.61,0.088 29.502,0.049 29.389,0.031C29.213,0.008 29.034,0.008 28.852,0.009C28.79,0.009 28.729,-0.002 28.666,0.001C28.52,0.009 28.376,0.039 28.231,0.061C28.127,0.077 28.027,0.08 27.924,0.103C27.862,0.116 27.8,0.142 27.736,0.158C25.804,0.653 23.806,2.289 22.319,4.103C22.069,4.405 21.841,4.715 21.625,5.023C21.172,5.666 20.786,6.306 20.506,6.909C20.401,7.131 20.311,7.346 20.235,7.555L15.558,26.592C15.457,26.941 15.644,27.308 15.983,27.432L23.4,30.13C23.742,30.255 24.121,30.093 24.267,29.761L32.936,12.129C33.085,11.719 33.208,11.246 33.307,10.727ZM24.523,15.506C23.13,14.999 22.411,13.459 22.918,12.065C23.425,10.672 24.966,9.953 26.362,10.462C27.753,10.969 28.473,12.509 27.966,13.902C27.457,15.294 25.917,16.011 24.523,15.506Z" style="fill:rgb(31,31,31);fill-rule:nonzero;"/>
            </g>
            <g transform="matrix(6.94156,2.28889,-2.28889,6.94156,205.092,40.2733)">
                <path d="M20.537,32.153C19.456,33.53 18.381,34.51 17.697,34.26C17.011,34.01 16.816,32.571 16.873,30.819C15.98,30.903 15.244,31.393 14.836,32.512C14.156,34.381 12.824,42.336 14.53,42.959C16.235,43.578 20.331,36.629 21.011,34.76C21.417,33.641 21.165,32.792 20.537,32.153Z" style="fill:rgb(31,31,31);fill-rule:nonzero;"/>
            </g>
        </g>
        <g transform="matrix(0.0760136,0,0,0.0760136,501.743,52.596)">
            <path d="M2500,2500L0,2500L0,0L2500,0L2500,2500ZM2008.75,1150L2010,1148.75C1966.88,1137.5 1863.75,1133.75 1820,1142.5C1685,1167.5 1590.62,1255 1563.75,1380C1555,1415.62 1558.12,1504.38 1567.5,1540.62C1580,1582.5 1606.88,1633.12 1636.25,1665.62C1687.5,1719.38 1742.5,1754.38 1871.88,1809.38C1984.38,1859.38 2024.38,1881.88 2044.38,1909.38C2058.75,1931.25 2063.12,1944.38 2063.12,1973.12C2063.12,2004.38 2053.12,2026.88 2030,2048.12C1976.25,2096.88 1867.5,2102.5 1786.25,2060.62C1759.38,2045.62 1713.12,2001.88 1692.5,1969.38L1676.25,1947.5L1605.62,1988.75L1511.88,2043.12L1488.12,2058.12C1485.62,2062.5 1530,2129.38 1553.12,2154.38C1611.88,2218.75 1707.5,2268.75 1807.5,2287.5C1854.38,2295.62 1954.38,2296.88 1998.12,2289.38C2137.5,2266.25 2235,2195.62 2275,2091.25C2310.62,1995.62 2298.75,1868.12 2245.62,1786.88C2198.75,1714.38 2121.25,1663.75 1942.5,1586.88C1845.62,1544.38 1814.38,1523.75 1797.5,1489.38C1790,1473.12 1786.25,1461.88 1786.25,1441.88C1786.25,1376.25 1836.25,1336.88 1911.25,1341.88C1963.12,1345.62 1996.25,1365.62 2028.75,1411.88C2038.75,1428.12 2048.75,1438.75 2051.25,1436.88C2116.88,1396.25 2225,1323.12 2225,1319.38C2222.5,1308.12 2188.12,1264.38 2165,1239.38C2121.25,1193.75 2072.5,1165 2008.75,1150ZM873.13,1356.25L873.13,2281.25L1103.76,2281.25L1103.76,1356.25L1428.76,1356.25L1428.76,1256.25C1428.76,1200 1428.76,1154.38 1426.26,1153.12C1426.26,1151.25 1228.13,1150.62 987.505,1150.62L550.005,1152.5L550.005,1255L548.13,1254.38L548.13,1356.25L873.13,1356.25Z" style="fill:rgb(0,122,204);fill-rule:nonzero;"/>
        </g>
        <g id="rest-smaller" transform="matrix(0.557838,-0.0941772,0.0941772,0.557838,5.22545,14.946)">
            <path d="M70.729,146.792L70.729,162.143L58.99,162.143L49.961,171.172L53.572,219.03L40.931,230.769L53.572,242.508L49.961,290.366L58.99,299.395L70.729,299.395L70.729,314.746L51.766,314.746L33.707,294.88L37.319,246.12L26.483,236.187L26.483,225.351L37.319,215.418L33.707,166.657L51.766,146.792L70.729,146.792Z" style="fill:rgb(26,184,138);"/>
            <path d="M603.244,146.792L603.244,162.143L614.983,162.143L624.012,171.172L620.4,219.03L633.042,230.769L620.4,242.508L624.012,290.366L614.983,299.395L603.244,299.395L603.244,314.746L622.206,314.746L640.266,294.88L636.654,246.12L647.49,236.187L647.49,225.351L636.654,215.418L640.266,166.657L622.206,146.792L603.244,146.792Z" style="fill:rgb(26,184,138);"/>
            <path d="M225.499,183.698L225.499,220.83L207.683,238.646L197.931,238.646L218.935,280.277L230.936,280.277L230.936,296.406L190.618,296.406L190.618,280.277L201.87,280.277L180.865,238.646L161.738,238.646L161.738,280.277L173.177,280.277L173.177,296.406L131.919,296.406L131.919,280.277L145.609,280.277L145.609,181.448L131.919,181.448L131.919,165.132L207.12,165.132L225.499,183.698ZM161.738,181.448L161.738,226.268L199.994,226.268L209.371,216.892L209.371,190.825L199.994,181.448L161.738,181.448Z" style="fill:rgb(2,159,198);fill-rule:nonzero;"/>
            <path d="M335.392,199.076L321.702,199.076L321.702,181.448L272.944,181.448L272.944,221.392L306.137,221.392L306.137,212.578L317.764,212.578L317.764,242.396L306.137,242.396L306.137,233.582L272.944,233.582L272.944,280.277L321.89,280.277L321.89,262.65L335.58,262.65L335.58,296.406L243.127,296.406L243.127,280.277L256.817,280.277L256.817,181.448L243.127,181.448L243.127,165.132L335.392,165.132L335.392,199.076Z" style="fill:rgb(2,159,198);fill-rule:nonzero;"/>
            <path d="M433.472,183.698L433.472,202.264L417.344,202.264L417.344,190.825L407.78,181.26L377.212,181.26L367.648,190.825L367.648,214.078L374.774,220.83L419.782,220.83L434.785,235.457L434.785,276.902L415.281,296.406L371.024,296.406L351.52,276.902L351.52,252.897L367.648,252.897L367.648,270.151L377.774,280.277L408.53,280.277L418.469,270.151L418.469,242.958L411.718,236.02L366.71,236.02L351.52,221.018L351.52,183.698L370.086,165.132L415.094,165.132L433.472,183.698Z" style="fill:rgb(2,159,198);fill-rule:nonzero;"/>
            <path d="M542.053,203.577L528.176,203.577L528.176,180.51L502.484,180.51L502.484,280.277L518.049,280.277L518.049,296.406L470.79,296.406L470.79,280.277L486.356,280.277L486.356,180.51L460.664,180.51L460.664,203.577L446.786,203.577L446.786,165.132L542.053,165.132L542.053,203.577Z" style="fill:rgb(2,159,198);fill-rule:nonzero;"/>
        </g>
        <g transform="matrix(0.736738,0,0,0.736738,-332.673,115.007)">
            <g transform="matrix(0.654988,0,0,0.654988,500.527,-2.4436)">
                <rect x="275.51" y="248.408" width="186.051" height="26.369" style="fill:rgb(255,181,49);fill-rule:nonzero;"/>
            </g>
            <g transform="matrix(0.654988,0,0,0.654988,500.527,-2.4436)">
                <path d="M275.51,270.382L275.51,229.363L159.777,229.363L159.777,481.338L461.561,481.338L461.561,270.382L275.51,270.382Z" style="fill:rgb(255,203,49);fill-rule:nonzero;"/>
            </g>
            <g transform="matrix(0.654988,0,0,0.654988,500.527,-2.4436)">
                <path d="M275.51,270.382L278.44,270.382L278.44,229.363C278.44,228.591 278.127,227.837 277.581,227.291C277.036,226.746 276.281,226.433 275.51,226.433L159.777,226.433C159.006,226.433 158.251,226.746 157.705,227.291C157.16,227.837 156.847,228.591 156.847,229.363L156.847,481.338C156.847,482.109 157.16,482.864 157.705,483.409C158.251,483.955 159.006,484.268 159.777,484.268L461.56,484.268C462.332,484.268 463.087,483.955 463.632,483.409C464.178,482.864 464.49,482.109 464.49,481.338L464.49,270.382C464.49,269.611 464.178,268.856 463.632,268.31C463.087,267.765 462.332,267.452 461.561,267.452L275.51,267.452L275.51,270.382L278.44,270.382L275.51,270.382L275.51,273.312L458.631,273.312L458.631,478.408L162.707,478.408L162.707,232.293L272.58,232.293L272.58,270.382C272.58,271.154 272.892,271.908 273.438,272.454C273.983,272.999 274.738,273.312 275.51,273.312L275.51,270.382Z" style="fill:rgb(35,31,32);fill-rule:nonzero;"/>
            </g>
            <g transform="matrix(0.654988,0,0,0.654988,500.527,-2.4436)">
                <path d="M275.51,267.452L247.675,267.452L247.675,273.312L275.51,273.312" style="fill:rgb(35,31,32);fill-rule:nonzero;"/>
            </g>
            <g transform="matrix(0.654988,0,0,0.654988,500.527,-2.4436)">
                <path d="M397.102,411.019L397.102,348.025L419.108,348.025L381.588,297.955L344.071,348.025L363.408,348.025L363.408,411.019" style="fill:white;fill-rule:nonzero;"/>
            </g>
            <g transform="matrix(0.654988,0,0,0.654988,500.527,-2.4436)">
                <path d="M400.032,411.019L400.032,350.955L419.108,350.955C420.22,350.955 421.231,350.331 421.728,349.336C422.226,348.342 422.119,347.158 421.453,346.268L383.933,296.198C383.381,295.461 382.508,295.025 381.588,295.025C380.668,295.025 379.795,295.461 379.243,296.198L341.726,346.269C341.06,347.159 340.953,348.342 341.451,349.336C341.948,350.331 342.959,350.955 344.071,350.955L360.478,350.955L360.478,411.019L366.338,411.019L366.338,348.025C366.338,347.254 366.025,346.499 365.479,345.954C364.934,345.408 364.179,345.096 363.408,345.096L349.928,345.096L381.588,302.841L413.251,345.095L397.102,345.096C396.33,345.096 395.576,345.408 395.03,345.954C394.485,346.499 394.172,347.254 394.172,348.025L394.172,411.019L400.032,411.019Z" style="fill:rgb(35,31,32);fill-rule:nonzero;"/>
            </g>
            <g transform="matrix(0.654988,0,0,0.654988,500.527,-2.4436)">
                <path d="M446.911,318.726L446.911,381.72L424.643,381.72L462.163,431.79L499.68,381.72L480.605,381.72L480.605,318.726" style="fill:white;fill-rule:nonzero;"/>
            </g>
            <g transform="matrix(0.654988,0,0,0.654988,500.527,-2.4436)">
                <path d="M443.981,318.726L443.981,378.79L424.643,378.79C423.531,378.79 422.52,379.414 422.023,380.409C421.525,381.403 421.631,382.587 422.298,383.477L459.818,433.547C460.37,434.284 461.243,434.72 462.163,434.72C463.083,434.72 463.956,434.284 464.508,433.547L502.024,383.477C502.691,382.587 502.798,381.403 502.3,380.409C501.802,379.414 500.792,378.79 499.68,378.79L483.535,378.79L483.535,318.726L477.675,318.726L477.675,381.72C477.675,382.491 477.988,383.246 478.533,383.792C479.079,384.337 479.834,384.65 480.605,384.65L493.823,384.65L462.163,426.904L430.5,384.65L446.911,384.65C447.682,384.65 448.437,384.337 448.983,383.792C449.528,383.246 449.841,382.491 449.841,381.72L449.841,318.726L443.981,318.726Z" style="fill:rgb(35,31,32);fill-rule:nonzero;"/>
            </g>
            <g transform="matrix(0.654988,0,0,0.654988,500.527,-2.4436)">
                <path d="M433.726,321.656L492.325,321.656L492.325,315.796L433.726,315.796" style="fill:rgb(35,31,32);fill-rule:nonzero;"/>
            </g>
            <g transform="matrix(0.654988,0,0,0.654988,500.527,-2.4436)">
                <path d="M351.688,413.949L407.357,413.949L407.357,408.089L351.688,408.089" style="fill:rgb(35,31,32);fill-rule:nonzero;"/>
            </g>
            <g transform="matrix(0.654988,0,0,0.654988,500.527,-2.4436)">
                <path d="M465.955,402.229L465.955,396.369L460.096,396.369L460.096,402.229L465.955,402.229ZM465.955,390.51L465.955,384.65L460.096,384.65L460.096,390.51L465.955,390.51ZM465.955,378.79L465.955,372.93L460.096,372.93L460.096,378.79L465.955,378.79ZM465.955,367.07L465.955,361.21L460.096,361.21L460.096,367.07L465.955,367.07ZM465.955,355.35L465.955,349.49L460.096,349.49L460.096,355.35L465.955,355.35ZM465.955,343.631L465.955,337.771L460.096,337.771L460.096,343.631L465.955,343.631Z" style="fill:rgb(35,31,32);fill-rule:nonzero;"/>
            </g>
            <g transform="matrix(0.654988,0,0,0.654988,500.527,-2.4436)">
                <path d="M383.917,397.834L383.917,391.974L378.057,391.974L378.057,397.834L383.917,397.834ZM383.917,386.115L383.917,380.255L378.057,380.255L378.057,386.115L383.917,386.115ZM383.917,374.395L383.917,368.535L378.057,368.535L378.057,374.395L383.917,374.395ZM383.917,362.675L383.917,356.815L378.057,356.815L378.057,362.675L383.917,362.675ZM383.917,350.955L383.917,345.096L378.057,345.096L378.057,350.955L383.917,350.955ZM383.917,339.236L383.917,333.376L378.057,333.376L378.057,339.236L383.917,339.236Z" style="fill:rgb(35,31,32);fill-rule:nonzero;"/>
            </g>
            <g>
                <g transform="matrix(0.654988,0,0,0.654988,500.527,-2.4436)">
                    <path d="M156,436.337C166.058,436.337 175.384,439.354 183.085,444.676C188.31,438.736 195.489,434.543 203.637,433.188C203.298,430.902 203.121,428.553 203.121,426.174C203.121,399.807 224.499,378.424 250.863,378.424C277.229,378.424 298.609,399.789 298.609,426.158C298.609,430.048 298.128,433.818 297.252,437.434C300.78,436.599 304.464,436.338 308.254,436.338C334.622,436.338 355.993,456.433 355.993,484.268L108.256,484.268C108.256,456.433 129.628,436.337 156,436.337Z" style="fill:rgb(241,242,242);fill-rule:nonzero;stroke:black;stroke-width:8.29px;"/>
                </g>
                <g transform="matrix(0.654988,0,0,0.654988,500.527,-2.4436)">
                    <path d="M295.42,435.148C295.42,435.148 295.335,435.217 295.175,435.344C294.616,435.788 293.175,436.926 291.689,438.044C290.947,438.603 290.193,439.157 289.545,439.608C289.223,439.834 288.926,440.034 288.681,440.191C288.437,440.348 288.237,440.464 288.153,440.507L290.86,445.704C291.241,445.504 291.597,445.284 291.988,445.031C292.665,444.589 293.424,444.049 294.207,443.475C296.544,441.757 299.068,439.734 299.085,439.721L295.42,435.148Z" style="fill-rule:nonzero;"/>
                </g>
                <g transform="matrix(0.654988,0,0,0.654988,500.527,-2.4436)">
                    <path d="M180.556,446.059C180.594,446.124 181.202,447.188 181.782,448.559C182.072,449.243 182.355,450.003 182.56,450.729C182.767,451.454 182.888,452.148 182.902,452.649L188.759,452.463C188.717,451.247 188.477,450.105 188.17,449.035C187.707,447.434 187.08,445.993 186.565,444.92C186.05,443.849 185.644,443.152 185.614,443.102L180.556,446.059Z" style="fill-rule:nonzero;"/>
                </g>
            </g>
            <g transform="matrix(0.654988,0,0,0.654988,500.527,-2.4436)">
                <path d="M297.252,437.434C297.252,437.434 291.418,442.11 289.507,443.105" style="fill:rgb(209,211,212);fill-rule:nonzero;"/>
            </g>
            <g transform="matrix(0.654988,0,0,0.654988,500.527,-2.4436)">
                <path d="M183.085,444.58C183.085,444.58 185.72,449.088 185.83,452.556" style="fill:rgb(209,211,212);fill-rule:nonzero;"/>
            </g>
        </g>
        <g transform="matrix(0.564956,0.106055,-0.105998,0.564654,-24.5959,10.0106)">
            <g id="Rectangle-path" transform="matrix(0.839771,0,0,0.839771,537.609,146.372)">
                <path d="M400,41.954C400,19.06 381.45,0.5 358.568,0.5C281.782,0.5 118.218,0.5 41.432,0.5C18.55,0.5 0,19.06 0,41.954C0,100.537 0,200.5 0,200.5L358.568,200.5C381.45,200.5 400,181.94 400,159.046C400,124.744 400,76.256 400,41.954Z"/>
            </g>
            <g id="Shape" transform="matrix(0.839771,0,0,0.839771,579.597,188.36)">
                <g>
                    <path d="M57.8,27.2L57.7,0.3L42.7,0.3L42.8,27.2L50.3,37.5L57.8,27.2Z" style="fill:white;"/>
                    <path d="M42.8,73.3L42.8,100.3L57.8,100.3L57.8,73.3L50.3,63L42.8,73.3Z" style="fill:white;"/>
                    <path d="M57.8,73.3L73.6,95.1L85.7,86.3L69.9,64.5L57.8,60.6L57.8,73.3Z" style="fill:rgb(0,242,230);"/>
                    <path d="M42.8,27.2L26.9,5.4L14.8,14.2L30.6,36L42.8,39.9L42.8,27.2Z" style="fill:rgb(0,242,230);"/>
                    <path d="M30.6,36L5,27.7L0.4,41.9L26,50.3L38.1,46.3L30.6,36Z" style="fill:rgb(0,185,241);"/>
                    <path d="M62.4,54.2L69.9,64.5L95.5,72.8L100.1,58.6L74.5,50.3L62.4,54.2Z" style="fill:rgb(0,185,241);"/>
                    <path d="M74.5,50.3L100.1,41.9L95.5,27.7L69.9,36L62.4,46.3L74.5,50.3Z" style="fill:rgb(214,58,255);"/>
                    <path d="M26,50.3L0.4,58.6L5,72.8L30.6,64.5L38.1,54.2L26,50.3Z" style="fill:rgb(214,58,255);"/>
                    <path d="M30.6,64.5L14.8,86.3L26.9,95.1L42.8,73.3L42.8,60.6L30.6,64.5Z" style="fill:rgb(251,1,91);"/>
                    <path d="M69.9,36L85.7,14.2L73.6,5.4L57.8,27.2L57.8,39.9L69.9,36Z" style="fill:rgb(251,1,91);"/>
                </g>
                <path d="M156.1,25.8L156.1,60.8C156.1,68.5 149.8,74.8 142.1,74.8L142.1,67.8C146,67.8 149.1,64.7 149.1,60.8L149.1,25.8L156.1,25.8ZM283.9,32.8L299.7,32.8L299.7,25.8L261.2,25.8L261.2,32.8L276.9,32.8L276.9,74.8L283.9,74.8L283.9,32.8ZM240.1,25.8L240.1,60.8C240.1,64.7 237,67.8 233.1,67.8C229.2,67.8 226.1,64.7 226.1,60.8L226.1,39.8C226.1,32.1 219.8,25.8 212.1,25.8C204.4,25.8 198.1,32.1 198.1,39.8L198.1,60.8C198.1,64.7 195,67.8 191.1,67.8C187.2,67.8 184.1,64.7 184.1,60.8L184.1,25.8L177.1,25.8L177.1,60.8C177.1,68.5 183.4,74.8 191.1,74.8C198.8,74.8 205.1,68.5 205.1,60.8L205.1,39.8C205.1,35.9 208.2,32.8 212.1,32.8C216,32.8 219.1,35.9 219.1,39.8L219.1,60.8C219.1,68.5 225.4,74.8 233.1,74.8C240.8,74.8 247.1,68.5 247.1,60.8L247.1,25.8L240.1,25.8Z" style="fill:white;"/>
            </g>
        </g>
        <g>
            <g transform="matrix(0.544079,0,0,0.544079,296.344,255.651)">
                <path d="M0.754,114.75C0.754,133.965 19.517,151.902 49.097,162.013C43.19,191.75 48.039,215.719 64.233,225.058C80.878,234.657 105.676,228.013 129.213,207.439C152.156,227.182 175.344,234.952 191.523,225.586C208.152,215.959 213.21,190.365 207.14,159.699C237.95,149.513 255.184,134.218 255.184,114.75C255.184,95.981 236.387,79.744 207.205,69.698C213.74,37.765 208.203,14.378 191.338,4.653C175.079,-4.723 151.622,3.449 128.342,23.709C104.123,2.205 80.897,-4.361 64.049,5.392C47.806,14.795 43.171,39.199 49.097,69.487C20.515,79.452 0.754,96.057 0.754,114.75Z" style="fill:white;fill-rule:nonzero;"/>
            </g>
            <path d="M405.717,299C404.442,298.561 403.12,298.146 401.759,297.753C401.983,296.84 402.188,295.939 402.371,295.054C405.367,280.512 403.408,268.797 396.719,264.94C390.306,261.242 379.817,265.098 369.224,274.317C368.206,275.203 367.184,276.142 366.163,277.125C365.483,276.474 364.804,275.846 364.126,275.244C353.024,265.387 341.896,261.233 335.214,265.101C328.807,268.81 326.91,279.823 329.606,293.605C329.867,294.936 330.171,296.295 330.515,297.677C328.94,298.124 327.42,298.601 325.965,299.108C312.95,303.646 304.637,310.758 304.637,318.135C304.637,325.753 313.561,333.395 327.117,338.029C328.187,338.395 329.297,338.74 330.441,339.069C330.07,340.564 329.747,342.028 329.476,343.457C326.905,356.999 328.913,367.752 335.303,371.438C341.903,375.244 352.981,371.332 363.768,361.903C364.62,361.158 365.476,360.367 366.333,359.539C367.444,360.609 368.553,361.621 369.657,362.571C380.105,371.562 390.424,375.192 396.808,371.496C403.402,367.679 405.545,356.128 402.763,342.074C402.551,341.001 402.303,339.904 402.026,338.788C402.803,338.558 403.567,338.321 404.312,338.074C418.406,333.404 427.575,325.855 427.575,318.135C427.575,310.731 418.995,303.571 405.717,299ZM397.611,343.094C398.841,349.308 399.017,354.927 398.202,359.319C397.47,363.266 395.997,365.898 394.177,366.951C390.302,369.194 382.017,366.279 373.082,358.59C372.057,357.708 371.025,356.767 369.99,355.771C373.454,351.982 376.917,347.578 380.295,342.687C386.239,342.159 391.854,341.297 396.945,340.12C397.196,341.132 397.419,342.124 397.611,343.094ZM346.55,366.564C342.764,367.901 339.749,367.939 337.927,366.888C334.049,364.652 332.437,356.018 334.636,344.437C334.888,343.11 335.188,341.748 335.533,340.355C340.569,341.469 346.143,342.27 352.101,342.753C355.502,347.54 359.064,351.939 362.654,355.791C361.87,356.549 361.089,357.269 360.312,357.949C355.542,362.118 350.762,365.076 346.55,366.564ZM366.31,352.012C363.821,349.327 361.338,346.356 358.913,343.16C361.267,343.253 363.667,343.3 366.106,343.3C368.612,343.3 371.089,343.243 373.527,343.135C371.133,346.388 368.716,349.363 366.31,352.012ZM383.262,328.137C381.34,331.469 379.367,334.65 377.365,337.653C373.716,337.914 369.948,338.048 366.106,338.048C362.28,338.048 358.559,337.929 354.976,337.696C352.892,334.655 350.876,331.464 348.967,328.166L348.967,328.166C347.062,324.876 345.31,321.559 343.721,318.261C345.309,314.954 347.057,311.633 348.951,308.35L348.951,308.351C350.849,305.058 352.847,301.883 354.912,298.861C358.568,298.584 362.317,298.44 366.106,298.44L366.106,298.44C369.912,298.44 373.666,298.585 377.321,298.864C379.354,301.865 381.339,305.029 383.245,308.322C385.173,311.652 386.943,314.951 388.545,318.186C386.948,321.477 385.181,324.809 383.262,328.137ZM348.282,337.111C344.255,336.661 340.458,336.053 336.952,335.289C338.037,331.784 339.375,328.141 340.936,324.436C342.037,326.561 343.199,328.685 344.422,330.797L344.422,330.797C345.667,332.948 346.957,335.056 348.282,337.111ZM391.377,324.247C393.02,327.992 394.406,331.616 395.505,335.062C391.941,335.875 388.092,336.53 384.037,337.017C385.314,334.994 386.573,332.907 387.811,330.761C389.064,328.589 390.253,326.414 391.377,324.247ZM328.816,333.06C322.821,331.011 317.871,328.348 314.477,325.442C311.428,322.831 309.889,320.238 309.889,318.135C309.889,313.658 316.563,307.948 327.694,304.067C329.045,303.596 330.458,303.152 331.926,302.736C333.464,307.74 335.482,312.972 337.917,318.262C335.451,323.632 333.404,328.947 331.85,334.01C330.804,333.709 329.791,333.393 328.816,333.06ZM402.66,333.089C401.988,333.311 401.298,333.526 400.595,333.735C399.039,328.809 396.94,323.572 394.37,318.16C396.822,312.878 398.841,307.707 400.353,302.813C401.611,303.177 402.831,303.561 404.007,303.966C415.384,307.882 422.323,313.673 422.323,318.135C422.323,322.887 414.829,329.056 402.66,333.089ZM366.106,307.157C372.169,307.157 377.084,312.071 377.084,318.135C377.084,324.197 372.169,329.112 366.106,329.112C360.043,329.112 355.128,324.197 355.128,318.135C355.128,312.071 360.043,307.157 366.106,307.157ZM387.79,305.69C386.574,303.589 385.325,301.538 384.052,299.542C387.974,300.038 391.733,300.696 395.262,301.502C394.202,304.898 392.882,308.448 391.327,312.088C390.212,309.971 389.032,307.836 387.79,305.69ZM344.401,305.727C343.186,307.834 342.028,309.957 340.93,312.084C339.401,308.457 338.093,304.89 337.024,301.446C340.532,300.661 344.272,300.02 348.17,299.533C346.878,301.547 345.619,303.614 344.401,305.726L344.401,305.727ZM394.096,269.49C398.213,271.864 399.814,281.439 397.227,293.994C397.062,294.795 396.877,295.611 396.675,296.438C391.574,295.261 386.036,294.385 380.237,293.841C376.859,289.031 373.358,284.658 369.845,280.871C370.789,279.963 371.733,279.096 372.672,278.278C381.748,270.38 390.231,267.261 394.096,269.49ZM334.76,292.596C332.45,280.788 333.984,271.881 337.846,269.646C341.959,267.265 351.053,270.66 360.639,279.171C361.252,279.715 361.867,280.285 362.484,280.874C358.912,284.709 355.382,289.076 352.011,293.834C346.229,294.37 340.694,295.231 335.606,296.383C335.286,295.097 335.002,293.832 334.76,292.596ZM366.165,284.627C368.587,287.252 371.013,290.182 373.399,293.361C370.995,293.247 368.561,293.188 366.106,293.188C363.675,293.188 361.259,293.246 358.869,293.358C361.258,290.208 363.705,287.282 366.165,284.627Z" style="fill:rgb(83,193,222);fill-rule:nonzero;"/>
        </g>
    </g>
</svg>
